<svg width="55" height="54" viewBox="0 0 55 54" fill="none" xmlns="http://www.w3.org/2000/svg">
<rect x="0.666687" width="54" height="54" rx="27" fill="#D9D9D9" fill-opacity="0.6"/>
<mask id="path-2-inside-1_1235_1958" fill="white">
<path d="M31.8854 30.375C31.6617 30.375 31.447 30.4639 31.2888 30.6221C31.1306 30.7804 31.0417 30.995 31.0417 31.2188C31.0417 31.4425 31.1306 31.6571 31.2888 31.8154C31.447 31.9736 31.6617 32.0625 31.8854 32.0625H35.2604C35.4842 32.0625 35.6988 31.9736 35.8571 31.8154C36.0153 31.6571 36.1042 31.4425 36.1042 31.2188C36.1042 30.995 36.0153 30.7804 35.8571 30.6221C35.6988 30.4639 35.4842 30.375 35.2604 30.375H31.8854ZM15.8542 22.7812C15.8542 21.6624 16.2987 20.5893 17.0898 19.7981C17.881 19.007 18.9541 18.5625 20.0729 18.5625H35.2604C36.3793 18.5625 37.4524 19.007 38.2435 19.7981C39.0347 20.5893 39.4792 21.6624 39.4792 22.7812V31.2188C39.4792 32.3376 39.0347 33.4107 38.2435 34.2019C37.4524 34.993 36.3793 35.4375 35.2604 35.4375H20.0729C18.9541 35.4375 17.881 34.993 17.0898 34.2019C16.2987 33.4107 15.8542 32.3376 15.8542 31.2188V22.7812ZM37.7917 23.625V22.7812C37.7917 22.1099 37.525 21.4661 37.0503 20.9914C36.5756 20.5167 35.9318 20.25 35.2604 20.25H20.0729C19.4016 20.25 18.7578 20.5167 18.2831 20.9914C17.8084 21.4661 17.5417 22.1099 17.5417 22.7812V23.625H37.7917ZM17.5417 25.3125V31.2188C17.5417 31.8901 17.8084 32.5339 18.2831 33.0086C18.7578 33.4833 19.4016 33.75 20.0729 33.75H35.2604C35.9318 33.75 36.5756 33.4833 37.0503 33.0086C37.525 32.5339 37.7917 31.8901 37.7917 31.2188V25.3125H17.5417Z"/>
</mask>
<path d="M31.8854 30.375C31.6617 30.375 31.447 30.4639 31.2888 30.6221C31.1306 30.7804 31.0417 30.995 31.0417 31.2188C31.0417 31.4425 31.1306 31.6571 31.2888 31.8154C31.447 31.9736 31.6617 32.0625 31.8854 32.0625H35.2604C35.4842 32.0625 35.6988 31.9736 35.8571 31.8154C36.0153 31.6571 36.1042 31.4425 36.1042 31.2188C36.1042 30.995 36.0153 30.7804 35.8571 30.6221C35.6988 30.4639 35.4842 30.375 35.2604 30.375H31.8854ZM15.8542 22.7812C15.8542 21.6624 16.2987 20.5893 17.0898 19.7981C17.881 19.007 18.9541 18.5625 20.0729 18.5625H35.2604C36.3793 18.5625 37.4524 19.007 38.2435 19.7981C39.0347 20.5893 39.4792 21.6624 39.4792 22.7812V31.2188C39.4792 32.3376 39.0347 33.4107 38.2435 34.2019C37.4524 34.993 36.3793 35.4375 35.2604 35.4375H20.0729C18.9541 35.4375 17.881 34.993 17.0898 34.2019C16.2987 33.4107 15.8542 32.3376 15.8542 31.2188V22.7812ZM37.7917 23.625V22.7812C37.7917 22.1099 37.525 21.4661 37.0503 20.9914C36.5756 20.5167 35.9318 20.25 35.2604 20.25H20.0729C19.4016 20.25 18.7578 20.5167 18.2831 20.9914C17.8084 21.4661 17.5417 22.1099 17.5417 22.7812V23.625H37.7917ZM17.5417 25.3125V31.2188C17.5417 31.8901 17.8084 32.5339 18.2831 33.0086C18.7578 33.4833 19.4016 33.75 20.0729 33.75H35.2604C35.9318 33.75 36.5756 33.4833 37.0503 33.0086C37.525 32.5339 37.7917 31.8901 37.7917 31.2188V25.3125H17.5417Z" fill="#191818"/>
<path d="M15.8542 22.7812H14.1667H15.8542ZM20.0729 18.5625V16.875V18.5625ZM37.7917 23.625V25.3125H39.4792V23.625H37.7917ZM37.7917 22.7812H39.4792H37.7917ZM17.5417 22.7812H15.8542H17.5417ZM17.5417 23.625H15.8542V25.3125H17.5417V23.625ZM17.5417 25.3125V23.625H15.8542V25.3125H17.5417ZM20.0729 33.75V35.4375V33.75ZM35.2604 33.75V35.4375V33.75ZM37.7917 25.3125H39.4792V23.625H37.7917V25.3125ZM31.8854 30.375V28.6875C31.2141 28.6875 30.5703 28.9542 30.0956 29.4289L31.2888 30.6221L32.4821 31.8154C32.3238 31.9736 32.1092 32.0625 31.8854 32.0625V30.375ZM31.2888 30.6221L30.0956 29.4289C29.6209 29.9036 29.3542 30.5474 29.3542 31.2188H31.0417H32.7292C32.7292 31.4425 32.6403 31.6571 32.4821 31.8154L31.2888 30.6221ZM31.0417 31.2188H29.3542C29.3542 31.8901 29.6209 32.5339 30.0956 33.0086L31.2888 31.8154L32.4821 30.6221C32.6403 30.7804 32.7292 30.995 32.7292 31.2188H31.0417ZM31.2888 31.8154L30.0956 33.0086C30.5703 33.4833 31.2141 33.75 31.8854 33.75V32.0625V30.375C32.1092 30.375 32.3238 30.4639 32.4821 30.6221L31.2888 31.8154ZM31.8854 32.0625V33.75H35.2604V32.0625V30.375H31.8854V32.0625ZM35.2604 32.0625V33.75C35.9318 33.75 36.5756 33.4833 37.0503 33.0086L35.8571 31.8154L34.6638 30.6221C34.8221 30.4639 35.0367 30.375 35.2604 30.375V32.0625ZM35.8571 31.8154L37.0503 33.0086C37.525 32.5339 37.7917 31.8901 37.7917 31.2188H36.1042H34.4167C34.4167 30.995 34.5056 30.7804 34.6638 30.6221L35.8571 31.8154ZM36.1042 31.2188H37.7917C37.7917 30.5474 37.525 29.9036 37.0503 29.4289L35.8571 30.6221L34.6638 31.8154C34.5056 31.6571 34.4167 31.4425 34.4167 31.2188H36.1042ZM35.8571 30.6221L37.0503 29.4289C36.5756 28.9542 35.9318 28.6875 35.2604 28.6875V30.375V32.0625C35.0367 32.0625 34.8221 31.9736 34.6638 31.8154L35.8571 30.6221ZM35.2604 30.375V28.6875H31.8854V30.375V32.0625H35.2604V30.375ZM15.8542 22.7812H17.5417C17.5417 22.1099 17.8084 21.4661 18.2831 20.9914L17.0898 19.7981L15.8966 18.6049C14.789 19.7125 14.1667 21.2148 14.1667 22.7812H15.8542ZM17.0898 19.7981L18.2831 20.9914C18.7578 20.5167 19.4016 20.25 20.0729 20.25V18.5625V16.875C18.5065 16.875 17.0042 17.4973 15.8966 18.6049L17.0898 19.7981ZM20.0729 18.5625V20.25H35.2604V18.5625V16.875H20.0729V18.5625ZM35.2604 18.5625V20.25C35.9318 20.25 36.5756 20.5167 37.0503 20.9914L38.2435 19.7981L39.4368 18.6049C38.3291 17.4973 36.8269 16.875 35.2604 16.875V18.5625ZM38.2435 19.7981L37.0503 20.9914C37.525 21.4661 37.7917 22.1099 37.7917 22.7812H39.4792H41.1667C41.1667 21.2148 40.5444 19.7125 39.4368 18.6049L38.2435 19.7981ZM39.4792 22.7812H37.7917V31.2188H39.4792H41.1667V22.7812H39.4792ZM39.4792 31.2188H37.7917C37.7917 31.8901 37.525 32.5339 37.0503 33.0086L38.2435 34.2019L39.4368 35.3951C40.5444 34.2875 41.1667 32.7852 41.1667 31.2188H39.4792ZM38.2435 34.2019L37.0503 33.0086C36.5756 33.4833 35.9318 33.75 35.2604 33.75V35.4375V37.125C36.8269 37.125 38.3291 36.5027 39.4368 35.3951L38.2435 34.2019ZM35.2604 35.4375V33.75H20.0729V35.4375V37.125H35.2604V35.4375ZM20.0729 35.4375V33.75C19.4016 33.75 18.7578 33.4833 18.2831 33.0086L17.0898 34.2019L15.8966 35.3951C17.0042 36.5027 18.5065 37.125 20.0729 37.125V35.4375ZM17.0898 34.2019L18.2831 33.0086C17.8084 32.5339 17.5417 31.8901 17.5417 31.2188H15.8542H14.1667C14.1667 32.7852 14.789 34.2875 15.8966 35.3951L17.0898 34.2019ZM15.8542 31.2188H17.5417V22.7812H15.8542H14.1667V31.2188H15.8542ZM37.7917 23.625H39.4792V22.7812H37.7917H36.1042V23.625H37.7917ZM37.7917 22.7812H39.4792C39.4792 21.6624 39.0347 20.5893 38.2435 19.7981L37.0503 20.9914L35.8571 22.1846C36.0153 22.3429 36.1042 22.5575 36.1042 22.7812H37.7917ZM37.0503 20.9914L38.2435 19.7981C37.4524 19.007 36.3793 18.5625 35.2604 18.5625V20.25V21.9375C35.4842 21.9375 35.6988 22.0264 35.8571 22.1846L37.0503 20.9914ZM35.2604 20.25V18.5625H20.0729V20.25V21.9375H35.2604V20.25ZM20.0729 20.25V18.5625C18.9541 18.5625 17.881 19.007 17.0898 19.7981L18.2831 20.9914L19.4763 22.1846C19.6345 22.0264 19.8492 21.9375 20.0729 21.9375V20.25ZM18.2831 20.9914L17.0898 19.7981C16.2987 20.5893 15.8542 21.6624 15.8542 22.7812H17.5417H19.2292C19.2292 22.5575 19.3181 22.3429 19.4763 22.1846L18.2831 20.9914ZM17.5417 22.7812H15.8542V23.625H17.5417H19.2292V22.7812H17.5417ZM17.5417 23.625V25.3125H37.7917V23.625V21.9375H17.5417V23.625ZM17.5417 25.3125H15.8542V31.2188H17.5417H19.2292V25.3125H17.5417ZM17.5417 31.2188H15.8542C15.8542 32.3376 16.2987 33.4107 17.0898 34.2019L18.2831 33.0086L19.4763 31.8154C19.3181 31.6571 19.2292 31.4425 19.2292 31.2188H17.5417ZM18.2831 33.0086L17.0898 34.2019C17.881 34.993 18.9541 35.4375 20.0729 35.4375V33.75V32.0625C19.8492 32.0625 19.6345 31.9736 19.4763 31.8154L18.2831 33.0086ZM20.0729 33.75V35.4375H35.2604V33.75V32.0625H20.0729V33.75ZM35.2604 33.75V35.4375C36.3793 35.4375 37.4524 34.993 38.2435 34.2019L37.0503 33.0086L35.8571 31.8154C35.6988 31.9736 35.4842 32.0625 35.2604 32.0625V33.75ZM37.0503 33.0086L38.2435 34.2019C39.0347 33.4107 39.4792 32.3376 39.4792 31.2188H37.7917H36.1042C36.1042 31.4425 36.0153 31.6571 35.8571 31.8154L37.0503 33.0086ZM37.7917 31.2188H39.4792V25.3125H37.7917H36.1042V31.2188H37.7917ZM37.7917 25.3125V23.625H17.5417V25.3125V27H37.7917V25.3125Z" fill="#005B32" mask="url(#path-2-inside-1_1235_1958)"/>
</svg>
